<svg xmlns="http://www.w3.org/2000/svg" viewBox="0 0 62 62" fill="#006241">
  <path d="M31,0C13.9082,0,0,13.9082,0,31s13.9082,31,31,31s31-13.9082,31-31S48.0918,0,31,0z M31,54.2402
    c-12.8325,0-23.2402-10.4077-23.2402-23.2402S18.1675,7.7598,31,7.7598S54.2402,18.1675,54.2402,31S43.8325,54.2402,31,54.2402z
     M31,15.1855c-8.7515,0-15.8145,7.063-15.8145,15.8145S22.2485,46.8145,31,46.8145S46.8145,39.7515,46.8145,31
    S39.7515,15.1855,31,15.1855z M31,37.4004c-3.5342,0-6.4004-2.8662-6.4004-6.4004S27.4658,24.5996,31,24.5996
    S37.4004,27.4658,37.4004,31S34.5342,37.4004,31,37.4004z"/>
</svg>
